<svg width="60" height="60" viewBox="0 0 60 60" fill="none" xmlns="http://www.w3.org/2000/svg">
<path d="M60 24.0812V35.9517C59.9583 36.8314 59.2325 37.5291 58.3401 37.5291C58.3401 37.5291 39.1119 37.5247 39.0834 37.5291C38.6537 37.5466 38.2699 37.7287 37.9871 38.0095C37.6867 38.3144 37.5025 38.7313 37.5025 39.1898V58.4271C37.4608 59.2782 36.7811 59.9583 35.9303 60H31.6632C29.1679 59.9166 26.9115 58.8724 25.2648 57.2205C23.6136 55.5751 22.5699 53.3221 22.4866 50.8256C22.4866 50.8256 22.4953 39.0472 22.4866 38.9814C22.4405 38.6018 22.2651 38.2596 22.0107 38.0051C21.7476 37.7419 21.3968 37.5664 21.0087 37.5291C20.9538 37.5247 1.56781 37.5291 1.56781 37.5291C1.13803 37.5115 0.754303 37.3294 0.47144 37.0486C0.217082 36.7898 0.0460476 36.4475 0 36.0724V24.2018C0 23.7389 0.18419 23.3221 0.484596 23.0216C0.789387 22.721 1.20601 22.5367 1.66429 22.5367C1.66429 22.5367 20.9495 22.5411 21.0043 22.5367C21.7849 22.4578 22.4098 21.8347 22.4888 21.0516C22.4931 20.9967 22.4888 1.68263 22.4888 1.66508C22.4888 1.20658 22.673 0.791956 22.9734 0.484826C23.2738 0.184278 23.6904 0 24.1531 0H28.5166C30.9242 0.133821 33.0885 1.1649 34.6914 2.77075C36.4105 4.49068 37.474 6.86874 37.474 9.4947V20.6808C37.4696 20.7356 37.4652 20.7971 37.4652 20.8519C37.4652 20.9068 37.4696 20.9682 37.474 21.023C37.5112 21.4113 37.6867 21.7623 37.9542 22.0256C38.2173 22.2932 38.5681 22.4687 38.9563 22.506C39.0111 22.5104 39.0725 22.5148 39.1273 22.5148C39.1821 22.5148 39.2435 22.5104 39.2983 22.506H58.5089C58.9014 22.5433 59.2523 22.7188 59.5176 22.9865C59.8005 23.2717 59.9803 23.6556 60 24.0812Z" fill="url(#paint0_linear_1641_8918)"/>
<defs>
<linearGradient id="paint0_linear_1641_8918" x1="43.5805" y1="13.0401" x2="16.0393" y2="47.1185" gradientUnits="userSpaceOnUse">
<stop offset="0.015625" stop-color="#4338CA"/>
<stop offset="1" stop-color="#23C6EE"/>
</linearGradient>
</defs>
</svg>
