<svg width="13" height="20" viewBox="0 0 13 20" fill="none" xmlns="http://www.w3.org/2000/svg">
<g clip-path="url(#clip0_288_8230)">
<path d="M3.2513 20C5.04495 20 6.50065 18.5067 6.50065 16.6667V13.3334H3.2513C1.45766 13.3334 0.00195312 14.8267 0.00195312 16.6667C0.00195312 18.5067 1.45766 20 3.2513 20Z" fill="#0ACF83"/>
<path d="M0.00195312 9.99996C0.00195312 8.15996 1.45766 6.66663 3.2513 6.66663H6.50065V13.3333H3.2513C1.45766 13.3333 0.00195312 11.84 0.00195312 9.99996Z" fill="#A259FF"/>
<path d="M0.00195312 3.33333C0.00195312 1.49333 1.45766 0 3.2513 0H6.50065V6.66667H3.2513C1.45766 6.66667 0.00195312 5.17333 0.00195312 3.33333Z" fill="#F24E1E"/>
<path d="M6.5 0H9.74935C11.543 0 12.9987 1.49333 12.9987 3.33333C12.9987 5.17333 11.543 6.66667 9.74935 6.66667H6.5V0Z" fill="#FF7262"/>
<path d="M12.9987 9.99996C12.9987 11.84 11.543 13.3333 9.74935 13.3333C7.95571 13.3333 6.5 11.84 6.5 9.99996C6.5 8.15996 7.95571 6.66663 9.74935 6.66663C11.543 6.66663 12.9987 8.15996 12.9987 9.99996Z" fill="#1ABCFE"/>
</g>
<defs>
<clipPath id="clip0_288_8230">
<rect width="13" height="20" fill="white"/>
</clipPath>
</defs>
</svg>
