<svg width="25" height="26" viewBox="0 0 25 26" fill="none" xmlns="http://www.w3.org/2000/svg">
<path d="M9.25781 18.5469C9.25781 18.625 9.17969 18.6641 9.0625 18.6641C8.94531 18.7031 8.86719 18.625 8.86719 18.5469C8.86719 18.4688 8.94531 18.3906 9.0625 18.3906C9.17969 18.3906 9.25781 18.4688 9.25781 18.5469ZM8.04688 18.3516C8.08594 18.2734 8.20312 18.2344 8.32031 18.2734C8.4375 18.3125 8.47656 18.3906 8.47656 18.4688C8.4375 18.5469 8.32031 18.5859 8.24219 18.5469C8.125 18.5469 8.04688 18.4297 8.04688 18.3516ZM9.80469 18.3125C9.88281 18.2734 10 18.3516 10 18.4297C10.0391 18.5078 9.96094 18.5469 9.84375 18.5859C9.72656 18.625 9.60938 18.5859 9.60938 18.5078C9.60938 18.3906 9.6875 18.3125 9.80469 18.3125ZM12.3438 3.3125C17.7734 3.3125 22.1875 7.45312 22.1875 12.8438C22.1875 17.1797 19.5312 20.8906 15.625 22.1797C15.1172 22.2969 14.9219 21.9844 14.9219 21.7109C14.9219 21.3984 14.9609 19.7578 14.9609 18.4688C14.9609 17.5312 14.6484 16.9453 14.2969 16.6328C16.4844 16.3984 18.7891 16.0859 18.7891 12.3359C18.7891 11.2422 18.3984 10.7344 17.7734 10.0312C17.8516 9.75781 18.2031 8.74219 17.6562 7.375C16.8359 7.10156 14.9609 8.42969 14.9609 8.42969C14.1797 8.19531 13.3594 8.11719 12.5 8.11719C11.6797 8.11719 10.8594 8.19531 10.0781 8.42969C10.0781 8.42969 8.16406 7.14062 7.38281 7.375C6.83594 8.74219 7.14844 9.75781 7.26562 10.0312C6.64062 10.7344 6.32812 11.2422 6.32812 12.3359C6.32812 16.0859 8.55469 16.3984 10.7422 16.6328C10.4297 16.9062 10.1953 17.3359 10.1172 17.9609C9.53125 18.2344 8.125 18.6641 7.26562 17.1406C6.71875 16.2031 5.74219 16.125 5.74219 16.125C4.80469 16.125 5.70312 16.75 5.70312 16.75C6.32812 17.0234 6.75781 18.1562 6.75781 18.1562C7.34375 19.9141 10.0781 19.3281 10.0781 19.3281C10.0781 20.1484 10.0781 21.4766 10.0781 21.75C10.0781 21.9844 9.92188 22.2969 9.41406 22.2188C5.50781 20.8906 2.8125 17.1797 2.8125 12.8438C2.8125 7.45312 6.95312 3.3125 12.3438 3.3125ZM6.60156 16.7891C6.64062 16.75 6.71875 16.7891 6.79688 16.8281C6.875 16.9062 6.875 17.0234 6.83594 17.0625C6.75781 17.1016 6.67969 17.0625 6.60156 17.0234C6.5625 16.9453 6.52344 16.8281 6.60156 16.7891ZM6.17188 16.4766C6.21094 16.4375 6.25 16.4375 6.32812 16.4766C6.40625 16.5156 6.44531 16.5547 6.44531 16.5938C6.40625 16.6719 6.32812 16.6719 6.25 16.6328C6.17188 16.5938 6.13281 16.5547 6.17188 16.4766ZM7.42188 17.8828C7.5 17.8047 7.61719 17.8438 7.69531 17.9219C7.77344 18 7.77344 18.1172 7.73438 18.1562C7.69531 18.2344 7.57812 18.1953 7.5 18.1172C7.38281 18.0391 7.38281 17.9219 7.42188 17.8828ZM6.99219 17.2969C7.07031 17.2578 7.14844 17.2969 7.22656 17.375C7.26562 17.4531 7.26562 17.5703 7.22656 17.6094C7.14844 17.6484 7.07031 17.6094 6.99219 17.5312C6.91406 17.4531 6.91406 17.3359 6.99219 17.2969Z" fill="#030712"/>
</svg>
