<svg width="23" height="24" viewBox="0 0 23 24" fill="none" xmlns="http://www.w3.org/2000/svg">
<path d="M14.4276 22.9034V15.1719H12.1246C9.6768 15.1719 8.67006 16.5975 8.47266 17.2117V20.9952C8.47266 21.719 8.90036 23.7588 11.664 23.7588C13.638 23.7588 14.4276 23.8904 14.4276 22.9034Z" fill="#4F46E5"/>
<path d="M12.4871 15.1721C10.1972 15.1721 8.90096 16.4223 8.53906 17.0474C8.53906 15.942 9.37253 15.0296 9.78927 14.7115C11.0614 13.5052 13.7307 10.9675 14.2308 10.4674C14.7309 9.96732 15.7771 9.66684 16.2377 9.5791H22.2255C23.0151 9.5791 23.1796 10.0068 22.8177 11.7505C22.524 13.1657 22.061 13.9219 21.4688 14.3825C20.995 14.751 20.3831 15.1721 18.9684 15.1721H12.4871Z" fill="#4F46E5"/>
<path d="M8.44059 1.15654L8.44059 8.82227L10.7436 8.82227C13.1914 8.82227 14.1981 7.39659 14.3955 6.78246L14.3955 2.99894C14.3955 2.27514 13.9678 0.235334 11.2042 0.235335C8.86765 0.235334 8.44059 0.323067 8.44059 1.15654Z" fill="#4F46E5"/>
<path d="M10.3811 8.823C12.6709 8.823 13.9672 7.57279 14.3291 6.94769C14.3291 8.05313 13.4956 8.96556 13.0789 9.2836C11.8068 10.4899 9.13746 13.0276 8.63738 13.5277C8.1373 14.0278 7.09108 14.3283 6.63047 14.416L0.97114 14.416C-0.0159283 14.416 -0.0816813 13.6591 0.0504501 12.2446C0.231805 10.3032 0.488709 10.0259 1.03688 9.51364C1.69488 8.89879 2.98895 8.823 3.27408 8.823L10.3811 8.823Z" fill="#4F46E5"/>
</svg>
