<svg width="350" height="358" viewBox="0 0 350 358" fill="none" xmlns="http://www.w3.org/2000/svg">
<path d="M219.266 344.911V227.411H184.266C147.066 227.411 131.766 249.078 128.766 258.411V315.911C128.766 326.911 135.266 357.911 177.266 357.911C207.266 357.911 219.266 359.911 219.266 344.911Z" fill="white"/>
<path d="M189.766 227.411C154.966 227.411 135.266 246.411 129.766 255.911C129.766 239.111 142.432 225.245 148.766 220.411C168.099 202.078 208.666 163.511 216.266 155.911C223.866 148.311 239.766 143.745 246.766 142.411H337.766C349.766 142.411 352.266 148.911 346.766 175.411C342.302 196.919 335.266 208.411 326.266 215.411C319.066 221.011 309.766 227.411 288.266 227.411H189.766Z" fill="white"/>
<path d="M128.277 14.4114L128.277 130.911L163.277 130.911C200.477 130.911 215.777 109.245 218.777 99.9114L218.777 42.4114C218.777 31.4114 212.277 0.411377 170.277 0.411381C134.768 0.411384 128.277 1.74471 128.277 14.4114Z" fill="white"/>
<path d="M157.773 130.915C192.573 130.915 212.273 111.915 217.773 102.415C217.773 119.215 205.107 133.082 198.773 137.915C179.44 156.249 138.873 194.815 131.273 202.415C123.673 210.015 107.773 214.582 100.773 215.915L14.7656 215.915C-0.235352 215.915 -1.23465 204.411 0.773435 182.915C3.52957 153.411 7.43388 149.196 15.7646 141.411C25.7646 132.067 45.4313 130.915 49.7646 130.915L157.773 130.915Z" fill="white"/>
</svg>
